<?xml version="1.0" encoding="UTF-8"?>
<svg version="1.1" xmlns="http://www.w3.org/2000/svg" width="100" height="100">
<path d="M0 0 C5.01609419 3.3804113 6.79019742 8.2558967 8 14 C8.04445983 15.66607356 8.05572001 17.33426501 8 19 C9.10408203 19.38091797 9.10408203 19.38091797 10.23046875 19.76953125 C11.20628906 20.11371094 12.18210938 20.45789063 13.1875 20.8125 C14.63189453 21.31716797 14.63189453 21.31716797 16.10546875 21.83203125 C19 23 19 23 21.44140625 24.62890625 C24.72845446 26.39036262 27.04885213 26.26735184 30.75 26.125 C32.83257246 26.05495833 34.91625836 26.00588628 37 26 C37.33 26.33 37.66 26.66 38 27 C37.99408709 28.70883116 37.94478539 30.41758415 37.875 32.125 C37.8161429 37.21940869 38.94898984 40.32369682 41 45 C41.41579318 48.02395039 41.62970509 51.01942995 41.8046875 54.06640625 C41.97111696 56.5661768 42.3061595 58.91499042 42.75 61.375 C43.04343304 65.62977908 42.36665934 67.49081547 40 71 C37.39070749 73.44621173 36.62968776 74 33 74 C32.87044922 75.10408203 32.87044922 75.10408203 32.73828125 76.23046875 C32.06604278 80.89913411 31.51328688 84.25206769 28.8125 88.1875 C25.1839459 90.52590153 23.24500711 90.68223329 19 90 C16.0625 88 16.0625 88 14 86 C12.948125 87.4540625 12.948125 87.4540625 11.875 88.9375 C9.91022475 91.26653134 9.08064698 91.97019568 6.125 93.0625 C1.49178754 92.96983575 -2.13289828 91.76389509 -5.5546875 88.53125 C-9 84.56038136 -9 84.56038136 -9 82 C-9.70125 82.474375 -10.4025 82.94875 -11.125 83.4375 C-15.70443209 85.92632179 -18.59409781 86.33360391 -23.6875 85.125 C-27.45255831 82.70967957 -27.96640638 81.20836434 -29.05078125 76.98828125 C-30.08548759 73.73087241 -31.48313129 70.8498517 -33.00878906 67.79956055 C-37.44746724 58.90375824 -40.41751201 51.87065814 -37.9375 41.875 C-35.2382862 34.08269954 -29.85205056 27.57278218 -23 23 C-20.35482034 21.7680622 -17.79275067 20.88192127 -15 20 C-15.10699219 19.35933594 -15.21398437 18.71867187 -15.32421875 18.05859375 C-16.16441376 11.99654162 -16.14520492 8.31431176 -13 3 C-9.6512484 -0.99274229 -4.84022123 -0.89184756 0 0 Z M-8 3 C-8.33 3.66 -8.66 4.32 -9 5 C-6.36 5.33 -3.72 5.66 -1 6 C-2.2488427 4.4166747 -2.2488427 4.4166747 -4 3 C-5.32 3 -6.64 3 -8 3 Z M-11 6 C-10 8 -10 8 -10 8 Z M-1 6 C0 8 0 8 0 8 Z M-12 8 C-12.33 10.31 -12.66 12.62 -13 15 C-10.69328085 12.28450846 -10.69328085 12.28450846 -11.375 9.8125 C-11.58125 9.214375 -11.7875 8.61625 -12 8 Z M-7 8 C-8.84107529 11.97284668 -9.14084463 13.54781461 -7.8125 17.8125 C-6.31924947 21.26489958 -6.31924947 21.26489958 -3 22 C-1.09814657 19.20315672 -1.00728815 17.89614391 -1.25 14.4375 C-1.80282433 10.90079631 -1.80282433 10.90079631 -4 8 C-4.99 8 -5.98 8 -7 8 Z M0 8 C1 10 1 10 1 10 Z M1 10 C2 13 2 13 2 13 Z M2 13 C2 14.65 2 16.3 2 18 C2.33 18 2.66 18 3 18 C3 16.35 3 14.7 3 13 C2.67 13 2.34 13 2 13 Z M-12 15 C-11 19 -11 19 -11 19 Z M1 19 C2 22 2 22 2 22 Z M8 23 C8.66 23.33 9.32 23.66 10 24 C9.67 25.32 9.34 26.64 9 28 C5.03454962 28.38687321 3.33269393 28.2172695 -0.0625 26 C-5.25144616 22.77132239 -11.1228597 23.29445222 -17 24 C-24.15916054 25.96412034 -28.39825363 30.8953815 -32.2578125 36.984375 C-34.71765567 41.42241372 -35.65580261 44.84726521 -35 50 C-32.16880456 58.64259659 -26.74651511 62.46178965 -19.0625 66.5 C-11.04954394 70.73467145 -5.42153241 74.28290292 -1.3125 82.75 C0.29506827 86.15591877 0.29506827 86.15591877 2 89 C2.99 89.33 3.98 89.66 5 90 C5.391875 89.278125 5.78375 88.55625 6.1875 87.8125 C9.9992757 81.89767564 12.793037 79.82517711 19.6875 78.3125 C20.82574219 78.10238281 21.96398437 77.89226562 23.13671875 77.67578125 C26.11208733 77.23842779 26.11208733 77.23842779 28 75 C27.236875 74.62875 26.47375 74.2575 25.6875 73.875 C22.34811766 71.54519837 21.32822769 69.83710223 20 66 C20.09319822 60.6877012 21.30948471 57.80234908 25 54 C27.64458379 52.67770811 29.67761301 52.90322806 32.625 52.9375 C34.12933594 52.95103516 34.12933594 52.95103516 35.6640625 52.96484375 C36.43492188 52.97644531 37.20578125 52.98804687 38 53 C38 50.69 38 48.38 38 46 C37.505 47.485 37.505 47.485 37 49 C35.68 48.67 34.36 48.34 33 48 C33 46.68 33 45.36 33 44 C34.32 43.67 35.64 43.34 37 43 C35.35 39.7 33.7 36.4 32 33 C27.98878879 33.76456452 27.98878879 33.76456452 25 36 C25.33 34.35 25.66 32.7 26 31 C24.68 31.33 23.36 31.66 22 32 C21.93554688 31.39671875 21.87109375 30.7934375 21.8046875 30.171875 C20.66369796 27.092311 19.04903576 26.62302549 16.125 25.25 C15.24070313 24.82203125 14.35640625 24.3940625 13.4453125 23.953125 C10.97155414 22.8184178 10.97155414 22.8184178 8 23 Z M26.125 58.1875 C23.9560897 61.05811658 23 62.42481427 23 66 C23.92023288 68.83928533 23.92023288 68.83928533 26 71 C29.52054314 72.22453674 31.23935102 72.3184112 34.6875 70.875 C37.31397985 68.74542174 38.66693754 67.11047907 40 64 C39.86591307 61.18417448 39.35405406 59.57042043 37.875 57.1875 C33.62397345 54.49518318 29.95251523 55.27526015 26.125 58.1875 Z " fill="#022893" transform="translate(48,2)"/>
<path d="M0 0 C0.66 0.515625 1.32 1.03125 2 1.5625 C2 2.2225 2 2.8825 2 3.5625 C-1 4.5625 -1 4.5625 -4.5625 4.4375 C-5.696875 4.47875 -6.83125 4.52 -8 4.5625 C-9.9451 7.48015 -10.45276317 9.18787285 -11 12.5625 C-11.99 12.5625 -12.98 12.5625 -14 12.5625 C-14 9.5925 -14 6.6225 -14 3.5625 C-14.66 4.2225 -15.32 4.8825 -16 5.5625 C-16.99 5.5625 -17.98 5.5625 -19 5.5625 C-18.9375 3.8125 -18.9375 3.8125 -18 1.5625 C-11.7634025 -3.1467675 -7.2086866 -3.45416233 0 0 Z " fill="#022893" transform="translate(65,36.4375)"/>
<path d="M0 0 C1.67542976 0.28604898 3.34385343 0.61781233 5 1 C5 2.65 5 4.3 5 6 C3.35 6.33 1.7 6.66 0 7 C-0.38133299 5.0085944 -0.71325582 3.00720923 -1 1 C-0.67 0.67 -0.34 0.34 0 0 Z " fill="#022894" transform="translate(74,64)"/>
<path d="M0 0 C2.0625 0.4375 2.0625 0.4375 4 1 C4 2.98 4 4.96 4 7 C2.0625 7.5625 2.0625 7.5625 0 8 C-1 7 -1 7 -1.125 4 C-1 1 -1 1 0 0 Z " fill="#022699" transform="translate(82,61)"/>
<path d="M0 0 C1.65 0.33 3.3 0.66 5 1 C4.67 2.65 4.34 4.3 4 6 C2.35 5.67 0.7 5.34 -1 5 C-0.67 3.35 -0.34 1.7 0 0 Z " fill="#022892" transform="translate(61,50)"/>
</svg>
